<svg xmlns="http://www.w3.org/2000/svg" viewBox="0 0 128 128" role="img" aria-labelledby="title desc">
  <title id="title">Google Sheets Font Preview icon</title>
  <desc id="desc">A spreadsheet grid with a font preview card.</desc>
  <defs>
    <linearGradient id="bg" x1="18" y1="10" x2="112" y2="120" gradientUnits="userSpaceOnUse">
      <stop offset="0" stop-color="#1f8f74"/>
      <stop offset="1" stop-color="#0f5f55"/>
    </linearGradient>
    <linearGradient id="card" x1="36" y1="30" x2="104" y2="98" gradientUnits="userSpaceOnUse">
      <stop offset="0" stop-color="#fff8e7"/>
      <stop offset="1" stop-color="#f1dfb5"/>
    </linearGradient>
  </defs>
  <rect x="8" y="8" width="112" height="112" rx="26" fill="url(#bg)"/>
  <rect x="22" y="25" width="72" height="76" rx="10" fill="#e9f7ef"/>
  <rect x="22" y="25" width="72" height="19" rx="10" fill="#b8e3cf"/>
  <path d="M22 42h72v4H22z" fill="#5fb99b"/>
  <path d="M46 25v76M70 25v76M22 63h72M22 82h72" stroke="#7bc4aa" stroke-width="4" stroke-linecap="round"/>
  <rect x="48" y="36" width="58" height="56" rx="14" fill="url(#card)" stroke="#174d45" stroke-width="4"/>
  <path d="M62 79l12-34h8l12 34h-8l-2-7H72l-2 7h-8zm12-14h8l-4-13-4 13z" fill="#173f3a"/>
  <path d="M91 46h11M96.5 40.5v11" stroke="#de6f4c" stroke-width="5" stroke-linecap="round"/>
  <circle cx="34" cy="36" r="4" fill="#0f5f55"/>
  <circle cx="58" cy="72" r="4" fill="#0f5f55"/>
</svg>
